# xmcd
#
# Track frame offsets: 
#        150
#        13368
#        24163
#        37005
#        50808
#        68713
#        78635
#        92603
#        112448
#        130238
#
# Disc length: 1980 seconds
#
# Revision: 0
# Processed by: cddbd v1.5.1PL0 Copyright (c) Steve Scherf et al.
# Submitted via: ExactAudioCopy v0.95a5
#
DISCID=8c07ba0a
DTITLE=The Cluster Pluckers - The Cluster Pluckers
DYEAR=1989
DGENRE=Country
TTITLE0=I Wonder Where You Are Tonight
TTITLE1=Before I'm Fool Enough
TTITLE2=Woman in Love
TTITLE3=Life's Railway to Heaven
TTITLE4=Bottom of the Glass
TTITLE5=Sail Away Ladies
TTITLE6=I Still Miss Someone
TTITLE7=Will You Miss Me
TTITLE8=Darlin' Cory
TTITLE9=Farther Along
EXTD=
EXTT0=
EXTT1=
EXTT2=
EXTT3=
EXTT4=
EXTT5=
EXTT6=
EXTT7=
EXTT8=
EXTT9=
PLAYORDER=
